<?xml version="1.0" encoding="UTF-8" standalone="no"?>
<svg
   xmlns:dc="http://purl.org/dc/elements/1.1/"
   xmlns:cc="http://creativecommons.org/ns#"
   xmlns:rdf="http://www.w3.org/1999/02/22-rdf-syntax-ns#"
   xmlns:svg="http://www.w3.org/2000/svg"
   xmlns="http://www.w3.org/2000/svg"
   xmlns:sodipodi="http://sodipodi.sourceforge.net/DTD/sodipodi-0.dtd"
   xmlns:inkscape="http://www.inkscape.org/namespaces/inkscape"
   width="16"
   version="1.1"
   id="svg7384"
   height="16"
   sodipodi:docname="com.github.torikulhabib.niki.time-lrc-symbolic.svg"
   inkscape:version="0.92.4 (0.92.4+202002201503+ce16d39)">
  <sodipodi:namedview
     pagecolor="#ffffff"
     bordercolor="#666666"
     borderopacity="1"
     objecttolerance="10"
     gridtolerance="10"
     guidetolerance="10"
     inkscape:pageopacity="0"
     inkscape:pageshadow="2"
     inkscape:window-width="1366"
     inkscape:window-height="705"
     id="namedview14"
     showgrid="false"
     inkscape:zoom="20.85965"
     inkscape:cx="-1.2220339"
     inkscape:cy="7.3231614"
     inkscape:window-x="0"
     inkscape:window-y="30"
     inkscape:window-maximized="1"
     inkscape:current-layer="svg7384" />
  <metadata
     id="metadata90">
    <rdf:RDF>
      <cc:Work
         rdf:about="">
        <dc:format>image/svg+xml</dc:format>
        <dc:type
           rdf:resource="http://purl.org/dc/dcmitype/StillImage" />
        <dc:title>elementary Symbolic Icon Theme</dc:title>
      </cc:Work>
    </rdf:RDF>
  </metadata>
  <title
     id="title9167">elementary Symbolic Icon Theme</title>
  <defs
     id="defs7386" />
  <path
     id="path37"
     d="M 7.9348191,0.13036173 Z"
     style="color:#000000;clip-rule:nonzero;display:inline;overflow:visible;visibility:visible;opacity:1;isolation:auto;mix-blend-mode:normal;color-interpolation:sRGB;color-interpolation-filters:linearRGB;solid-color:#000000;solid-opacity:1;fill:#333333;fill-opacity:1;fill-rule:nonzero;stroke:none;stroke-width:1.13354564;stroke-linecap:butt;stroke-linejoin:miter;stroke-miterlimit:4;stroke-dasharray:none;stroke-dashoffset:0;stroke-opacity:1;marker:none;color-rendering:auto;image-rendering:auto;shape-rendering:auto;text-rendering:auto;enable-background:accumulate"
     inkscape:connector-curvature="0" />
  <path
     id="path35"
     d="m 7.9348191,0.13036173 v 0 1.13354557 0 c 3.7562389,0 6.8012739,3.0450338 6.8012739,6.8012736 0,3.7562391 -3.045035,6.8012741 -6.8012739,6.8012741 -3.7562397,0 -6.8012735,-3.045035 -6.8012735,-6.8012741 C 1.1363039,6.5361936 1.6541908,5.0527386 2.6036125,3.854236 L 1.6139741,3.2808215 C 0.56938363,4.6573251 0.00268889,6.3371982 0,8.0651809 0,12.44746 3.5525395,16 7.9348191,16 c 4.3822789,0 7.9348189,-3.55254 7.9348189,-7.9348191 0,-4.3822796 -3.55254,-7.93481917 -7.9348189,-7.93481917 z"
     style="color:#000000;clip-rule:nonzero;display:inline;overflow:visible;visibility:visible;opacity:1;isolation:auto;mix-blend-mode:normal;color-interpolation:sRGB;color-interpolation-filters:linearRGB;solid-color:#000000;solid-opacity:1;fill:#666666;fill-opacity:1;fill-rule:nonzero;stroke:none;stroke-width:1.13354564;stroke-linecap:butt;stroke-linejoin:miter;stroke-miterlimit:4;stroke-dasharray:none;stroke-dashoffset:0;stroke-opacity:1;marker:none;color-rendering:auto;image-rendering:auto;shape-rendering:auto;text-rendering:auto;enable-background:accumulate"
     inkscape:connector-curvature="0"
     sodipodi:nodetypes="ccccssccccsssc" />
  <g
     transform="translate(-856.487,-207.48659)"
     style="display:inline"
     label="status"
     id="layer9" />
  <g
     transform="translate(-856.487,-207.48659)"
     style="display:inline"
     id="layer10" />
  <g
     transform="translate(-856.487,-207.48659)"
     style="display:inline"
     id="layer13" />
  <g
     transform="translate(-856.487,-207.48659)"
     id="layer14" />
  <g
     transform="translate(-856.487,-207.48659)"
     style="display:inline"
     id="layer15" />
  <g
     transform="translate(-856.487,-207.48659)"
     style="display:inline"
     id="g71291" />
  <path
     id="rect831"
     d="M 8.2344668,1.7875798 C 7.842049,1.7418128 7.7872759,2.0725165 7.8281542,2.3361018 c -0.00346,2.6229201 0.00789,5.2475086 -0.00511,7.8689202 -0.095841,0.09023 -0.2791183,-0.05711 -0.4012332,-0.01862 -1.3302878,-0.07306 -2.7839933,0.795935 -2.9169865,2.050186 -0.1567347,0.99721 1.0124258,1.817592 2.055265,1.662496 1.3140604,-0.125656 2.3400163,-1.320966 2.1686933,-2.500516 0.00346,-2.0768276 -0.00789,-4.1564912 0.00511,-6.2318189 0.089567,-0.092427 0.2239183,0.105475 0.3182783,0.1151219 1.0567199,0.5633465 1.6552649,1.4926089 1.7183679,2.6494926 0.06934,0.9039848 -0.233804,1.7877558 -0.575609,2.6257944 C 11.340242,9.2869154 11.706916,7.434013 10.911055,5.9336599 10.504018,5.0627307 9.9213604,4.5265103 9.4076944,3.7175603 9.0283564,3.1769716 8.7395738,2.5730714 8.6492444,1.9348636 8.5748731,1.801784 8.3793265,1.7861452 8.2344668,1.7875753 Z"
     style="opacity:1;vector-effect:none;fill:#555761;fill-opacity:1;stroke:none;stroke-width:0.86680019;stroke-linecap:butt;stroke-linejoin:round;stroke-miterlimit:4;stroke-dasharray:none;stroke-dashoffset:0;stroke-opacity:1;marker:none;paint-order:normal"
     inkscape:connector-curvature="0"
     sodipodi:nodetypes="cccccccccccccccc" />
</svg>
