<?xml version="1.0" encoding="UTF-8" standalone="no"?>
<svg
   xmlns:dc="http://purl.org/dc/elements/1.1/"
   xmlns:cc="http://creativecommons.org/ns#"
   xmlns:rdf="http://www.w3.org/1999/02/22-rdf-syntax-ns#"
   xmlns:svg="http://www.w3.org/2000/svg"
   xmlns="http://www.w3.org/2000/svg"
   xmlns:sodipodi="http://sodipodi.sourceforge.net/DTD/sodipodi-0.dtd"
   xmlns:inkscape="http://www.inkscape.org/namespaces/inkscape"
   height="16"
   width="15.982"
   version="1.1"
   id="svg6"
   sodipodi:docname="zoomout-fit-best-symbolic.svg"
   inkscape:version="0.92.4 (0.92.4+201908131952+1a1d78a)">
  <metadata
     id="metadata12">
    <rdf:RDF>
      <cc:Work
         rdf:about="">
        <dc:format>image/svg+xml</dc:format>
        <dc:type
           rdf:resource="http://purl.org/dc/dcmitype/StillImage" />
        <dc:title></dc:title>
      </cc:Work>
    </rdf:RDF>
  </metadata>
  <defs
     id="defs10" />
  <sodipodi:namedview
     pagecolor="#ffffff"
     bordercolor="#666666"
     borderopacity="1"
     objecttolerance="10"
     gridtolerance="10"
     guidetolerance="10"
     inkscape:pageopacity="0"
     inkscape:pageshadow="2"
     inkscape:window-width="1366"
     inkscape:window-height="705"
     id="namedview8"
     showgrid="false"
     showguides="true"
     inkscape:guide-bbox="true"
     inkscape:zoom="16"
     inkscape:cx="15.519082"
     inkscape:cy="9.9614978"
     inkscape:window-x="0"
     inkscape:window-y="30"
     inkscape:window-maximized="1"
     inkscape:current-layer="g4" />
  <g
     transform="translate(-413 3)"
     id="g4">
    <path
       d="m 409.188,6.0000005 c -0.663,0 -1.188,0.549 -1.188,1.219 V 11 h 2 V 8.0000005 h 3 v -2 z m 5.812,0 v 2 h 3 V 11 h 2 V 7.2190005 c 0,-0.67 -0.525,-1.219 -1.187,-1.219 z M 408,13 v 3.781 c 0,0.67 0.525,1.219 1.188,1.219 H 413 v -2 h -3 v -3 z m 10,0 v 3 h -3 v 2 h 3.813 C 419.475,18 420,17.451 420,16.781 V 13 Z"
       overflow="visible"
       style="color:#bebebe;overflow:visible;fill:#666666;marker:none"
       id="path2"
       inkscape:connector-curvature="0" />
    <path
       inkscape:connector-curvature="0"
       d="m 409.188,-7.9999998 c -0.663,0 -1.188,0.549 -1.188,1.219 V -3 h 2 v -2.9999998 h 3 v -2 z m 5.812,0 v 2 h 3 V -3 h 2 v -3.7809998 c 0,-0.67 -0.525,-1.219 -1.187,-1.219 z m -7,6.9999997 V 2.781 C 408,3.451 408.525,4 409.188,4 H 413 V 2 h -3 v -3.0000001 z m 10,0 V 2 h -3 v 2 h 3.813 C 419.475,4 420,3.451 420,2.781 v -3.7810001 z"
       overflow="visible"
       style="color:#bebebe;overflow:visible;fill:#666666;marker:none"
       id="path2-3" />
    <path
       inkscape:connector-curvature="0"
       d="M 423.188,-8 C 422.525,-8 422,-7.451 422,-6.781 V -3 h 2 v -3 h 3 V -8 Z M 429,-8 v 2 h 3 v 3 h 2 V -6.781 C 434,-7.451 433.475,-8 432.813,-8 Z m -7,7 V 2.781 C 422,3.451 422.525,4 423.188,4 H 427 V 2 h -3 v -3 z m 10,0 V 0.71186437 2 h -3 v 2 h 3.813 C 433.475,4 434,3.451 434,2.781 V -1 Z"
       overflow="visible"
       style="color:#bebebe;overflow:visible;fill:#666666;marker:none"
       id="path2-6"
       sodipodi:nodetypes="sscccccscccccssccssccccccccccsscc" />
    <path
       inkscape:connector-curvature="0"
       d="m 423.188,5.9999999 c -0.663,0 -1.188,0.549 -1.188,1.219 V 11 h 2 V 7.9999999 h 3 v -2 z m 5.812,0 v 2 h 3 V 11 h 2 V 7.2189999 c 0,-0.67 -0.525,-1.219 -1.187,-1.219 z M 422,13 v 3.781 c 0,0.67 0.525,1.219 1.188,1.219 H 427 v -2 h -3 v -3 z m 10,0 v 3 h -3 v 2 h 2.25424 1.55876 C 433.475,18 434,17.451 434,16.781 V 13 Z"
       overflow="visible"
       style="color:#bebebe;overflow:visible;fill:#666666;marker:none"
       id="path2-7"
       sodipodi:nodetypes="sscccccscccccssccssccccccccccsscc" />
  </g>
</svg>
