<?xml version="1.0" encoding="UTF-8" standalone="no"?>
<svg
   xmlns:dc="http://purl.org/dc/elements/1.1/"
   xmlns:cc="http://creativecommons.org/ns#"
   xmlns:rdf="http://www.w3.org/1999/02/22-rdf-syntax-ns#"
   xmlns:svg="http://www.w3.org/2000/svg"
   xmlns="http://www.w3.org/2000/svg"
   xmlns:sodipodi="http://sodipodi.sourceforge.net/DTD/sodipodi-0.dtd"
   xmlns:inkscape="http://www.inkscape.org/namespaces/inkscape"
   height="16"
   width="16"
   version="1.1"
   id="svg8"
   sodipodi:docname="com.github.torikulhabib.niki.file-save-as-symbolic.svg"
   inkscape:version="0.92.5 (0.92.4+202004231256+fe8e1c6)">
  <metadata
     id="metadata14">
    <rdf:RDF>
      <cc:Work
         rdf:about="">
        <dc:format>image/svg+xml</dc:format>
        <dc:type
           rdf:resource="http://purl.org/dc/dcmitype/StillImage" />
        <dc:title />
      </cc:Work>
    </rdf:RDF>
  </metadata>
  <defs
     id="defs12" />
  <sodipodi:namedview
     pagecolor="#ffffff"
     bordercolor="#666666"
     borderopacity="1"
     objecttolerance="10"
     gridtolerance="10"
     guidetolerance="10"
     inkscape:pageopacity="0"
     inkscape:pageshadow="2"
     inkscape:window-width="1366"
     inkscape:window-height="705"
     id="namedview10"
     showgrid="false"
     inkscape:zoom="32.625"
     inkscape:cx="8"
     inkscape:cy="8"
     inkscape:window-x="0"
     inkscape:window-y="30"
     inkscape:window-maximized="1"
     inkscape:current-layer="svg8" />
  <g
     transform="translate(-633 23)"
     id="g6">
    <path
       color="#bebebe"
       d="M635-23c-.545 0-1 .455-1 1v2c0 .545.455 1 1 1v10c0 1 1 1 1 1h10s1 0 1-1v-10c.546 0 1-.455 1-1v-2c0-.545-.454-1-1-1zm0 1h12v2h-12zm1 3h10v9.5c0 .5-.5.5-.5.5h-9s-.5 0-.5-.5z"
       fill="#666"
       overflow="visible"
       style="marker:none"
       id="path2" />
  </g>
  <path
     id="rect831"
     d="m 8.1874839,4.9123386 c -0.2292851,-0.026741 -0.2612884,0.1664852 -0.2374037,0.320495 -0.00202,1.5325414 0.00461,3.0660577 -0.00298,4.5977177 -0.055999,0.05272 -0.1630855,-0.03337 -0.2344358,-0.01088 -0.7772715,-0.04268 -1.6266545,0.4650537 -1.704361,1.1978987 -0.091578,0.582657 0.5915486,1.061997 1.2008673,0.971377 0.76779,-0.07342 1.367244,-0.771826 1.267142,-1.461023 0.00202,-1.2134647 -0.00461,-2.4285867 0.00298,-3.6411767 0.052333,-0.054003 0.1308328,0.061628 0.1859663,0.067265 0.6174292,0.3291563 0.9671522,0.8721135 1.0040225,1.548067 C 9.7098005,9.0302663 9.532672,9.5466433 9.3329597,10.036299 10.002152,9.2941123 10.216395,8.2114823 9.7513827,7.334844 9.5135565,6.8259708 9.173116,6.5126635 8.872987,6.0400036 8.6513442,5.7241439 8.4826119,5.3712921 8.4298335,4.9983948 8.3863795,4.920638 8.2721237,4.9115004 8.1874839,4.9123361 Z"
     style="opacity:1;vector-effect:none;fill:#555761;fill-opacity:1;stroke:none;stroke-width:0.50646114;stroke-linecap:butt;stroke-linejoin:round;stroke-miterlimit:4;stroke-dasharray:none;stroke-dashoffset:0;stroke-opacity:1;marker:none;paint-order:normal"
     inkscape:connector-curvature="0"
     sodipodi:nodetypes="cccccccccccccccc" />
</svg>
