<?xml version="1.0" encoding="UTF-8" standalone="no"?>
<svg
   xmlns:dc="http://purl.org/dc/elements/1.1/"
   xmlns:cc="http://creativecommons.org/ns#"
   xmlns:rdf="http://www.w3.org/1999/02/22-rdf-syntax-ns#"
   xmlns:svg="http://www.w3.org/2000/svg"
   xmlns="http://www.w3.org/2000/svg"
   xmlns:sodipodi="http://sodipodi.sourceforge.net/DTD/sodipodi-0.dtd"
   xmlns:inkscape="http://www.inkscape.org/namespaces/inkscape"
   height="16"
   width="16"
   version="1.1"
   id="svg8"
   sodipodi:docname="com.github.torikulhabib.niki.flip-on-symbolic.svg"
   inkscape:version="0.92.4 (0.92.4+201912240539+70224e8)">
  <metadata
     id="metadata14">
    <rdf:RDF>
      <cc:Work
         rdf:about="">
        <dc:format>image/svg+xml</dc:format>
        <dc:type
           rdf:resource="http://purl.org/dc/dcmitype/StillImage" />
        <dc:title />
      </cc:Work>
    </rdf:RDF>
  </metadata>
  <defs
     id="defs12" />
  <sodipodi:namedview
     pagecolor="#ffffff"
     bordercolor="#666666"
     borderopacity="1"
     objecttolerance="10"
     gridtolerance="10"
     guidetolerance="10"
     inkscape:pageopacity="0"
     inkscape:pageshadow="2"
     inkscape:window-width="1366"
     inkscape:window-height="705"
     id="namedview10"
     showgrid="false"
     inkscape:zoom="14.75"
     inkscape:cx="-2.4067797"
     inkscape:cy="8"
     inkscape:window-x="0"
     inkscape:window-y="30"
     inkscape:window-maximized="1"
     inkscape:current-layer="svg8" />
  <g
     transform="translate(-593 171)"
     id="g6">
    <path
       d="M601-171a8 8 0 1 0 0 16 8 8 0 0 0 0-16zm0 1a7 7 0 0 1 7 7c0 1.972-.844 3.728-2.156 5-.443-1.727-1.975-3-3.844-3h-2c-1.869 0-3.4 1.273-3.844 3-1.312-1.272-2.156-3.028-2.156-5a7 7 0 0 1 7-7z"
       overflow="visible"
       style="marker:none"
       id="path2"
       fill="#666"
       color="#000" />
  </g>
  <g
     style="color:#bebebe;stroke-width:1.44785273"
     transform="matrix(0.69067797,0,0,0.69067797,-337.99576,-52.148305)"
     id="g4">
    <path
       inkscape:connector-curvature="0"
       d="m 498,81 -5,4 5,4 v -3 h 6 v 3 l 5,-4 -5,-4 v 3 h -6 z"
       overflow="visible"
       style="overflow:visible;fill:#666666;stroke-width:1.44785273;marker:none"
       id="path2-3" />
  </g>
</svg>
