<?xml version="1.0" encoding="UTF-8" standalone="no"?>
<svg
   xmlns:dc="http://purl.org/dc/elements/1.1/"
   xmlns:cc="http://creativecommons.org/ns#"
   xmlns:rdf="http://www.w3.org/1999/02/22-rdf-syntax-ns#"
   xmlns:svg="http://www.w3.org/2000/svg"
   xmlns="http://www.w3.org/2000/svg"
   xmlns:sodipodi="http://sodipodi.sourceforge.net/DTD/sodipodi-0.dtd"
   xmlns:inkscape="http://www.inkscape.org/namespaces/inkscape"
   height="16.007"
   width="16.01"
   version="1.1"
   id="svg8"
   sodipodi:docname="com.github.torikulhabib.niki.video-device-symbolic.svg"
   inkscape:version="0.92.4 (0.92.4+201912050525+36965ca)">
  <metadata
     id="metadata14">
    <rdf:RDF>
      <cc:Work
         rdf:about="">
        <dc:format>image/svg+xml</dc:format>
        <dc:type
           rdf:resource="http://purl.org/dc/dcmitype/StillImage" />
      </cc:Work>
    </rdf:RDF>
  </metadata>
  <defs
     id="defs12" />
  <sodipodi:namedview
     pagecolor="#ffffff"
     bordercolor="#666666"
     borderopacity="1"
     objecttolerance="10"
     gridtolerance="10"
     guidetolerance="10"
     inkscape:pageopacity="0"
     inkscape:pageshadow="2"
     inkscape:window-width="1366"
     inkscape:window-height="705"
     id="namedview10"
     showgrid="false"
     showguides="false"
     inkscape:zoom="14.74355"
     inkscape:cx="8.0050001"
     inkscape:cy="8.0035"
     inkscape:window-x="0"
     inkscape:window-y="30"
     inkscape:window-maximized="1"
     inkscape:current-layer="svg8" />
  <g
     transform="translate(-1113 -60.993)"
     id="g6">
    <path
       color="#000"
       d="M1127 61a1 1 0 0 0-1 1v1h-11.49c-.822 0-1.5.678-1.5 1.5v8.994c0 .823.678 1.5 1.5 1.5H1126V77h1v-4h2l.01-7.003-2.005.003v-3.5s0-.5.5-.5h1.5v-1zm-12.49 3H1126v9.994h-11.49a.488.488 0 0 1-.5-.5V64.5c0-.286.214-.5.5-.5zm12.5 2.994h1v1h-1zm0 2h1v1h-1zm0 2h1v1h-1z"
       fill="#666"
       font-family="sans-serif"
       font-weight="400"
       overflow="visible"
       style="line-height:normal;font-variant-ligatures:normal;font-variant-position:normal;font-variant-caps:normal;font-variant-numeric:normal;font-variant-alternates:normal;font-feature-settings:normal;text-indent:0;text-align:start;text-decoration-line:none;text-decoration-style:solid;text-decoration-color:#000;text-transform:none;text-orientation:mixed;shape-padding:0;isolation:auto;mix-blend-mode:normal"
       white-space="normal"
       id="path2" />
  </g>
  <g
     style="color:#bebebe;stroke-width:2.04481363"
     transform="matrix(0.48904214,0,0,0.48904214,-541.21206,134.38698)"
     id="g4">
    <path
       inkscape:connector-curvature="0"
       d="m 1114.75,-266 a 0.748,0.748 0 0 0 -0.75,0.75 v 13.5 c 0,0.415 0.335,0.75 0.75,0.75 h 12.5 c 0.416,0 0.75,-0.335 0.75,-0.75 v -13.5 a 0.748,0.748 0 0 0 -0.75,-0.75 z m 0.25,1 h 1 v 1 h -1 z m 2.5,0 h 7 c 0.277,0 0.5,0.223 0.5,0.5 v 5 c 0,0.277 -0.223,0.5 -0.5,0.5 h -7 a 0.499,0.499 0 0 1 -0.5,-0.5 v -5 c 0,-0.277 0.223,-0.5 0.5,-0.5 z m 8.5,0 h 1 v 1 h -1 z m -11,2 h 1 v 1 h -1 z m 11,0 h 1 v 1 h -1 z m -11,2 h 1 v 1 h -1 z m 11,0 h 1 v 1 h -1 z m -11,2 h 1 v 1 h -1 z m 11,0 h 1 v 1 h -1 z m -8.5,1 h 7 c 0.277,0 0.5,0.223 0.5,0.5 v 5 c 0,0.277 -0.223,0.5 -0.5,0.5 h -7 a 0.499,0.499 0 0 1 -0.5,-0.5 v -5 c 0,-0.277 0.223,-0.5 0.5,-0.5 z m -2.5,1 h 1 v 1 h -1 z m 11,0 h 1 v 1 h -1 z m -11,2 h 1 v 1 h -1 z m 11,0 h 1 v 1 h -1 z m -11,2 h 1 v 1 h -1 z m 11,0 h 1 v 1 h -1 z"
       overflow="visible"
       style="overflow:visible;fill:#666666;stroke-width:2.04481363;marker:none"
       id="path2-3" />
  </g>
</svg>
