<?xml version="1.0" encoding="UTF-8" standalone="no"?>
<svg
   xmlns:dc="http://purl.org/dc/elements/1.1/"
   xmlns:cc="http://creativecommons.org/ns#"
   xmlns:rdf="http://www.w3.org/1999/02/22-rdf-syntax-ns#"
   xmlns:svg="http://www.w3.org/2000/svg"
   xmlns="http://www.w3.org/2000/svg"
   xmlns:sodipodi="http://sodipodi.sourceforge.net/DTD/sodipodi-0.dtd"
   xmlns:inkscape="http://www.inkscape.org/namespaces/inkscape"
   height="16"
   width="16"
   version="1.1"
   id="svg8"
   sodipodi:docname="com.github.torikulhabib.niki.folder-symbolic.svg"
   inkscape:version="0.92.4 (0.92.4+201909250228+37519c7)">
  <metadata
     id="metadata14">
    <rdf:RDF>
      <cc:Work
         rdf:about="">
        <dc:format>image/svg+xml</dc:format>
        <dc:type
           rdf:resource="http://purl.org/dc/dcmitype/StillImage" />
      </cc:Work>
    </rdf:RDF>
  </metadata>
  <defs
     id="defs12" />
  <sodipodi:namedview
     pagecolor="#ffffff"
     bordercolor="#666666"
     borderopacity="1"
     objecttolerance="10"
     gridtolerance="10"
     guidetolerance="10"
     inkscape:pageopacity="0"
     inkscape:pageshadow="2"
     inkscape:window-width="1366"
     inkscape:window-height="705"
     id="namedview10"
     showgrid="false"
     showguides="true"
     inkscape:guide-bbox="true"
     inkscape:lockguides="false"
     inkscape:zoom="46.840502"
     inkscape:cx="7.0847458"
     inkscape:cy="7.2881356"
     inkscape:window-x="0"
     inkscape:window-y="30"
     inkscape:window-maximized="1"
     inkscape:current-layer="svg8">
    <sodipodi:guide
       position="0.68316945,6.6822512"
       orientation="0,1"
       id="guide825"
       inkscape:locked="false" />
  </sodipodi:namedview>
  <g
     transform="translate(-1033 347)"
     id="g6">
    <path
       d="m 1034,-334.59322 v 0.0932 c 0,0 -0.01,0.353 0.178,0.723 0.184,0.369 0.655,0.777 1.322,0.777 h 11 c 0.667,0 1.138,-0.408 1.322,-0.777 0.185,-0.37 0.178,-0.723 0.178,-0.723 v -0.0932 z"
       font-weight="400"
       overflow="visible"
       style="color:#000000;font-weight:400;line-height:normal;font-family:sans-serif;font-variant-ligatures:normal;font-variant-position:normal;font-variant-caps:normal;font-variant-numeric:normal;font-variant-alternates:normal;font-feature-settings:normal;text-indent:0;text-align:start;text-decoration:none;text-decoration-line:none;text-decoration-style:solid;text-decoration-color:#000000;text-transform:none;text-orientation:mixed;white-space:normal;shape-padding:0;overflow:visible;isolation:auto;mix-blend-mode:normal;fill:#666666;fill-rule:evenodd"
       id="path4"
       inkscape:connector-curvature="0"
       sodipodi:nodetypes="cccsscccc" />
    <path
       d="m 1036,-345 c -0.417,0 -0.763,0.283 -0.885,0.527 -0.122,0.245 -0.115,0.473 -0.115,0.473 0,0 -0.228,-0.007 -0.473,0.115 -0.3197,0.18119 -0.52,0.51762 -0.527,0.885 v 8.40678 h 14 V -343 c -0.01,-0.36697 -0.2061,-0.70331 -0.525,-0.885 C 1047.23,-344.007 1047,-344 1047,-344 h -6 c -0.01,-0.36697 -0.2061,-0.70331 -0.525,-0.885 C 1040.23,-345.007 1040,-345 1040,-345 Z m 0,1 h 4 v 1 h 7 l 0.01,5.31775 h -12.0742 L 1035,-343 h 1 z"
       font-weight="400"
       overflow="visible"
       style="color:#000000;font-weight:400;line-height:normal;font-family:sans-serif;font-variant-ligatures:normal;font-variant-position:normal;font-variant-caps:normal;font-variant-numeric:normal;font-variant-alternates:normal;font-feature-settings:normal;text-indent:0;text-align:start;text-decoration:none;text-decoration-line:none;text-decoration-style:solid;text-decoration-color:#000000;text-transform:none;text-orientation:mixed;white-space:normal;shape-padding:0;overflow:visible;isolation:auto;mix-blend-mode:normal;fill:#666666;fill-rule:evenodd"
       id="path2"
       inkscape:connector-curvature="0"
       sodipodi:nodetypes="sccccccccccccsccccccccc" />
  </g>
</svg>
