<?xml version="1.0" encoding="UTF-8" standalone="no"?>
<svg
   xmlns:dc="http://purl.org/dc/elements/1.1/"
   xmlns:cc="http://creativecommons.org/ns#"
   xmlns:rdf="http://www.w3.org/1999/02/22-rdf-syntax-ns#"
   xmlns:svg="http://www.w3.org/2000/svg"
   xmlns="http://www.w3.org/2000/svg"
   xmlns:xlink="http://www.w3.org/1999/xlink"
   xmlns:sodipodi="http://sodipodi.sourceforge.net/DTD/sodipodi-0.dtd"
   xmlns:inkscape="http://www.inkscape.org/namespaces/inkscape"
   version="1.0"
   width="64"
   height="64"
   id="svg2453"
   sodipodi:docname="com.github.torikulhabib.niki.svg"
   inkscape:version="1.1-dev (952cbafb2b, 2020-02-29)">
  <sodipodi:namedview
     pagecolor="#ffffff"
     bordercolor="#666666"
     borderopacity="1"
     objecttolerance="10"
     gridtolerance="10"
     guidetolerance="10"
     inkscape:pageopacity="0"
     inkscape:pageshadow="2"
     inkscape:window-width="2560"
     inkscape:window-height="1377"
     id="namedview53"
     showgrid="false"
     inkscape:zoom="10.478646"
     inkscape:cx="43.491775"
     inkscape:cy="29.062743"
     inkscape:window-x="0"
     inkscape:window-y="30"
     inkscape:window-maximized="1"
     inkscape:current-layer="layer1"
     showguides="false"
     inkscape:snap-page="true"
     inkscape:snap-bbox="false"
     inkscape:snap-nodes="true"
     inkscape:object-paths="true"
     width="64px" />
  <metadata
     id="metadata35">
    <rdf:RDF>
      <cc:Work
         rdf:about="">
        <dc:format>image/svg+xml</dc:format>
        <dc:type
           rdf:resource="http://purl.org/dc/dcmitype/StillImage" />
        <dc:title></dc:title>
      </cc:Work>
    </rdf:RDF>
  </metadata>
  <defs
     id="defs2455">
    <linearGradient
       inkscape:collect="always"
       id="linearGradient1173">
      <stop
         style="stop-color:#273445;stop-opacity:1;"
         offset="0"
         id="stop1169" />
      <stop
         style="stop-color:#485a6c;stop-opacity:0.99274653"
         offset="1"
         id="stop1171" />
    </linearGradient>
    <linearGradient
       id="linearGradient870">
      <stop
         id="stop866"
         offset="0"
         style="stop-color:#ed5353;stop-opacity:1" />
      <stop
         id="stop868"
         offset="1"
         style="stop-color:#c6262e;stop-opacity:1" />
    </linearGradient>
    <linearGradient
       id="linearGradient5060-2">
      <stop
         id="stop5062-3"
         style="stop-color:#000000;stop-opacity:1"
         offset="0" />
      <stop
         id="stop5064-1"
         style="stop-color:#000000;stop-opacity:0"
         offset="1" />
    </linearGradient>
    <linearGradient
       id="linearGradient5048-8">
      <stop
         id="stop5050-4"
         style="stop-color:#000000;stop-opacity:0"
         offset="0" />
      <stop
         id="stop5056-5"
         style="stop-color:#000000;stop-opacity:1"
         offset="0.5" />
      <stop
         id="stop5052-1"
         style="stop-color:#000000;stop-opacity:0"
         offset="1" />
    </linearGradient>
    <radialGradient
       cx="605.71429"
       cy="486.64789"
       r="117.14286"
       fx="605.71429"
       fy="486.64789"
       id="radialGradient3172"
       xlink:href="#linearGradient5060-2"
       gradientUnits="userSpaceOnUse"
       gradientTransform="matrix(0.03212956,0,0,0.02058823,40.136785,48.451418)" />
    <radialGradient
       cx="605.71429"
       cy="486.64789"
       r="117.14286"
       fx="605.71429"
       fy="486.64789"
       id="radialGradient3175"
       xlink:href="#linearGradient5060-2"
       gradientUnits="userSpaceOnUse"
       gradientTransform="matrix(-0.03212956,0,0,0.02058823,23.863218,48.451418)" />
    <linearGradient
       x1="302.85715"
       y1="366.64789"
       x2="302.85715"
       y2="609.50507"
       id="linearGradient3178"
       xlink:href="#linearGradient5048-8"
       gradientUnits="userSpaceOnUse"
       gradientTransform="matrix(0.11390532,0,0,0.02058823,-9.1686407,48.522668)" />
    <linearGradient
       xlink:href="#linearGradient4215-8-4-07-7"
       id="linearGradient4489"
       x1="36"
       y1="59"
       x2="36"
       y2="49"
       gradientUnits="userSpaceOnUse" />
    <linearGradient
       y2="44.340794"
       x2="71.204407"
       y1="6.2375584"
       x1="71.204407"
       gradientTransform="matrix(-0.05405405,0,0,0.05405405,22.44,53.223092)"
       gradientUnits="userSpaceOnUse"
       id="linearGradient14699"
       xlink:href="#linearGradient4011-9-9-70-61-7" />
    <linearGradient
       id="linearGradient4011-9-9-70-61-7">
      <stop
         offset="0"
         style="stop-color:#ffffff;stop-opacity:1;"
         id="stop4013-5-4-3-8-3" />
      <stop
         id="stop4015-1-5-70-9-5"
         style="stop-color:#ffffff;stop-opacity:0.23529412;"
         offset="0.507761" />
      <stop
         offset="0.83456558"
         style="stop-color:#ffffff;stop-opacity:0.15686275;"
         id="stop4017-7-0-13-0-1" />
      <stop
         offset="1"
         style="stop-color:#ffffff;stop-opacity:0.39215687;"
         id="stop4019-1-12-7-0-7" />
    </linearGradient>
    <linearGradient
       y2="8.0928917"
       x2="38.976662"
       y1="59.967686"
       x1="38.976662"
       gradientTransform="matrix(-0.07843137,0,0,0.07843137,21.009804,51.833334)"
       gradientUnits="userSpaceOnUse"
       id="linearGradient14702"
       xlink:href="#linearGradient4215-8-4-07-7" />
    <linearGradient
       id="linearGradient4215-8-4-07-7">
      <stop
         id="stop4217-1-2-1-2"
         offset="0"
         style="stop-color:#2b3235;stop-opacity:1" />
      <stop
         id="stop4219-3-4-0-96"
         offset="1"
         style="stop-color:#374044;stop-opacity:1" />
    </linearGradient>
    <linearGradient
       xlink:href="#linearGradient3462-4"
       id="linearGradient3133-5"
       gradientUnits="userSpaceOnUse"
       gradientTransform="matrix(1.5405403,0,0,1.2162162,-4.9729748,5.8820664)"
       x1="40.290417"
       y1="5.8525243"
       x2="40.290417"
       y2="42.030304" />
    <linearGradient
       id="linearGradient3462-4">
      <stop
         id="stop3464-8"
         style="stop-color:#ffffff;stop-opacity:1"
         offset="0" />
      <stop
         id="stop3466-4"
         style="stop-color:#ffffff;stop-opacity:0.23529412"
         offset="0.02247414" />
      <stop
         id="stop3468-5"
         style="stop-color:#ffffff;stop-opacity:0.15686275"
         offset="0.97727269" />
      <stop
         id="stop3470-2"
         style="stop-color:#ffffff;stop-opacity:0.39215687"
         offset="1" />
    </linearGradient>
    <linearGradient
       gradientUnits="userSpaceOnUse"
       y2="58.36964"
       x2="36.583492"
       y1="11.213032"
       x1="36.583492"
       id="linearGradient872"
       xlink:href="#linearGradient870" />
    <linearGradient
       x1="167.98311"
       y1="8.50811"
       x2="167.98311"
       y2="54.780239"
       id="linearGradient5915"
       xlink:href="#linearGradient5803-0"
       gradientUnits="userSpaceOnUse"
       gradientTransform="matrix(0.42210106,0,0,0.42210106,-38.559589,3.7747862)" />
    <linearGradient
       id="linearGradient5803-0">
      <stop
         id="stop5805-3"
         style="stop-color:#fff5ef;stop-opacity:1"
         offset="0" />
      <stop
         id="stop5807-4"
         style="stop-color:#fef8dd;stop-opacity:1"
         offset="1" />
    </linearGradient>
    <linearGradient
       x1="23.99999"
       y1="6.3043351"
       x2="23.99999"
       y2="41.695637"
       id="linearGradient4161"
       xlink:href="#linearGradient3924-64-9"
       gradientUnits="userSpaceOnUse"
       gradientTransform="matrix(0.62162166,0,0,0.62162166,15.081083,3.0810892)" />
    <linearGradient
       id="linearGradient3924-64-9">
      <stop
         id="stop3926-3-6-7"
         style="stop-color:#ffffff;stop-opacity:1"
         offset="0" />
      <stop
         id="stop3928-0-0"
         style="stop-color:#ffffff;stop-opacity:0.23529412"
         offset="0.04545455" />
      <stop
         id="stop3930-3-59-6"
         style="stop-color:#ffffff;stop-opacity:0.15686275"
         offset="0.9545455" />
      <stop
         id="stop3932-0-30"
         style="stop-color:#ffffff;stop-opacity:0.39215687"
         offset="1" />
    </linearGradient>
    <linearGradient
       xlink:href="#linearGradient900"
       id="linearGradient902"
       x1="28"
       y1="6"
       x2="28"
       y2="30.457617"
       gradientUnits="userSpaceOnUse" />
    <linearGradient
       id="linearGradient900">
      <stop
         style="stop-color:#ffa154;stop-opacity:1"
         offset="0"
         id="stop896" />
      <stop
         style="stop-color:#f37329;stop-opacity:1"
         offset="1"
         id="stop898" />
    </linearGradient>
    <linearGradient
       gradientTransform="matrix(0.62162166,0,0,0.64864877,5.0810376,12.932453)"
       gradientUnits="userSpaceOnUse"
       xlink:href="#linearGradient4235"
       id="linearGradient7191-5-0"
       y2="41.72913"
       x2="23.99999"
       y1="6.2708025"
       x1="23.99999" />
    <linearGradient
       id="linearGradient4235">
      <stop
         offset="0"
         style="stop-color:#ffffff;stop-opacity:1"
         id="stop4237" />
      <stop
         offset="0"
         style="stop-color:#ffffff;stop-opacity:0.23529412"
         id="stop4239" />
      <stop
         offset="1"
         style="stop-color:#ffffff;stop-opacity:0.15686275"
         id="stop4241" />
      <stop
         offset="1"
         style="stop-color:#ffffff;stop-opacity:0.39215687"
         id="stop4243" />
    </linearGradient>
    <linearGradient
       gradientTransform="matrix(1.3846154,0,0,1.35,3.3845885,2.1750421)"
       xlink:href="#linearGradient895"
       id="linearGradient889"
       x1="12"
       y1="5.369091"
       x2="12"
       y2="40.668579"
       gradientUnits="userSpaceOnUse" />
    <linearGradient
       id="linearGradient895">
      <stop
         id="stop891"
         style="stop-color:#8cd5ff;stop-opacity:1"
         offset="0" />
      <stop
         id="stop893"
         style="stop-color:#3689e6;stop-opacity:1"
         offset="1" />
    </linearGradient>
    <radialGradient
       gradientTransform="matrix(0.01606479,0,0,0.0082353,22.318387,37.98055)"
       gradientUnits="userSpaceOnUse"
       xlink:href="#linearGradient4549-5"
       id="radialGradient4965-9-7"
       fy="486.64789"
       fx="605.71429"
       r="117.14286"
       cy="486.64789"
       cx="605.71429" />
    <linearGradient
       id="linearGradient4549-5">
      <stop
         offset="0"
         style="stop-color:#000000;stop-opacity:0.27205881"
         id="stop4551-9" />
      <stop
         offset="1"
         style="stop-color:#000000;stop-opacity:0.36764705"
         id="stop4553-0" />
    </linearGradient>
    <radialGradient
       gradientTransform="matrix(-0.01606479,0,0,0.0082353,17.681612,37.98055)"
       gradientUnits="userSpaceOnUse"
       xlink:href="#linearGradient4549-5"
       id="radialGradient4968-3-5"
       fy="486.64789"
       fx="605.71429"
       r="117.14286"
       cy="486.64789"
       cx="605.71429" />
    <linearGradient
       gradientTransform="matrix(0.04970414,0,0,0.0082353,2.0355057,37.98054)"
       gradientUnits="userSpaceOnUse"
       xlink:href="#linearGradient5048-8"
       id="linearGradient12979-1"
       y2="609.50507"
       x2="302.85715"
       y1="366.64789"
       x1="302.85715" />
    <linearGradient
       inkscape:collect="always"
       xlink:href="#linearGradient28086"
       id="linearGradient28076"
       x1="164.48137"
       y1="-13.05691"
       x2="129.3008"
       y2="247"
       gradientUnits="userSpaceOnUse"
       gradientTransform="matrix(0.24922016,0.14388733,-0.14388733,0.24922016,120.70595,-35.69516)" />
    <linearGradient
       id="linearGradient28086">
      <stop
         id="stop28082"
         offset="0"
         style="stop-color:#ecba3d;stop-opacity:1" />
      <stop
         id="stop28084"
         offset="1"
         style="stop-color:#f2d666;stop-opacity:1" />
    </linearGradient>
    <linearGradient
       id="linearGradient36194">
      <stop
         id="stop36186"
         style="stop-color:#e2e2e2;stop-opacity:0.73333335"
         offset="0" />
      <stop
         id="stop36188"
         style="stop-color:#dadada;stop-opacity:0.14901961"
         offset=".063" />
      <stop
         id="stop36190"
         style="stop-color:#d9d9d9;stop-opacity:0.22352941"
         offset=".951" />
      <stop
         id="stop36192"
         style="stop-color:#c1c1c1;stop-opacity:0.47398844"
         offset="1" />
    </linearGradient>
    <mask
       maskUnits="userSpaceOnUse"
       id="mask1017">
      <circle
         r="103.01913"
         cy="127.09547"
         cx="128"
         id="circle1019"
         style="opacity:1;fill:url(#linearGradient1021);fill-opacity:1;fill-rule:evenodd;stroke:none;stroke-width:0;stroke-linecap:round;stroke-linejoin:round;stroke-miterlimit:4;stroke-dasharray:none;stroke-dashoffset:0;stroke-opacity:0.521569;paint-order:markers fill stroke" />
    </mask>
    <linearGradient
       inkscape:collect="always"
       xlink:href="#linearGradient966-6"
       id="linearGradient1021"
       gradientUnits="userSpaceOnUse"
       x1="128.26543"
       y1="22.770271"
       x2="133.45816"
       y2="228.81905" />
    <linearGradient
       inkscape:collect="always"
       id="linearGradient966-6">
      <stop
         style="stop-color:#c6f27b;stop-opacity:1"
         offset="0"
         id="stop962" />
      <stop
         style="stop-color:#93d049;stop-opacity:1"
         offset="1"
         id="stop964" />
    </linearGradient>
    <linearGradient
       gradientTransform="matrix(2.6658408,0,0,2.7170994,-16.45381,-21.556212)"
       gradientUnits="userSpaceOnUse"
       xlink:href="#linearGradient8272"
       id="linearGradient5891"
       y2="44.237919"
       x2="97.538795"
       y1="17.002993"
       x1="97.538795" />
    <linearGradient
       id="linearGradient8272">
      <stop
         offset="0"
         style="stop-color:#ffffff;stop-opacity:1"
         id="stop8274" />
      <stop
         offset="0.0221225"
         style="stop-color:#ffffff;stop-opacity:0.23529412"
         id="stop8276" />
      <stop
         offset="0.97909725"
         style="stop-color:#ffffff;stop-opacity:0.15686275"
         id="stop8278" />
      <stop
         offset="1"
         style="stop-color:#ffffff;stop-opacity:0.39215687"
         id="stop8280" />
    </linearGradient>
    <linearGradient
       gradientTransform="matrix(0.21400397,0,0,0.06588235,113.53188,65.486987)"
       gradientUnits="userSpaceOnUse"
       xlink:href="#linearGradient5048-8"
       id="linearGradient5875"
       y2="609.50507"
       x2="302.85715"
       y1="366.64789"
       x1="302.85715" />
    <radialGradient
       gradientTransform="matrix(0.08300137,0,0,0.06588235,192.52404,65.486987)"
       gradientUnits="userSpaceOnUse"
       xlink:href="#linearGradient5060-2"
       id="radialGradient5877"
       fy="486.64789"
       fx="605.71429"
       r="117.14286"
       cy="486.64789"
       cx="605.71429" />
    <radialGradient
       gradientTransform="matrix(-0.08300135,0,0,0.06588235,189.23399,65.486987)"
       gradientUnits="userSpaceOnUse"
       xlink:href="#linearGradient5060-2"
       id="radialGradient5879"
       fy="486.64789"
       fx="605.71429"
       r="117.14286"
       cy="486.64789"
       cx="605.71429" />
    <linearGradient
       gradientTransform="matrix(2.6658408,0,0,2.6469079,-16.45381,-18.406902)"
       gradientUnits="userSpaceOnUse"
       xlink:href="#linearGradient9235"
       id="linearGradient5873"
       y2="44.260689"
       x2="97.538795"
       y1="12.108284"
       x1="97.538795" />
    <linearGradient
       id="linearGradient9235">
      <stop
         offset="0"
         style="stop-color:#ffffff;stop-opacity:1"
         id="stop9237" />
      <stop
         offset="0.02350054"
         style="stop-color:#ffffff;stop-opacity:0.23529412"
         id="stop9239" />
      <stop
         offset="0.97909725"
         style="stop-color:#ffffff;stop-opacity:0.15686275"
         id="stop9241" />
      <stop
         offset="1"
         style="stop-color:#ffffff;stop-opacity:0.39215687"
         id="stop9243" />
    </linearGradient>
    <linearGradient
       id="linearGradient6404-7-5">
      <stop
         offset="0"
         style="stop-color:#f9f9f9;stop-opacity:1"
         id="stop6406-1-8" />
      <stop
         offset="1"
         style="stop-color:#c9c9c9;stop-opacity:1"
         id="stop6408-9-6" />
    </linearGradient>
    <linearGradient
       gradientTransform="matrix(2.7209303,0,0,2.6722576,9.65882,-18.571262)"
       gradientUnits="userSpaceOnUse"
       xlink:href="#linearGradient6404-7-5"
       id="linearGradient26390"
       y2="16.997795"
       x2="62.988873"
       y1="14.090554"
       x1="62.988873" />
    <linearGradient
       id="linearGradient4632-0-6-4-4-4">
      <stop
         offset="0"
         style="stop-color:#efdfc4;stop-opacity:1"
         id="stop4634-4-4-7-4" />
      <stop
         offset="1"
         style="stop-color:#e7c591;stop-opacity:1"
         id="stop4636-3-1-5-9" />
    </linearGradient>
    <linearGradient
       y2="138.45531"
       x2="48.622746"
       y1="-19.357914"
       x1="48.622746"
       gradientTransform="matrix(0.50413225,0,0,0.49333391,119.36673,32.33791)"
       gradientUnits="userSpaceOnUse"
       id="linearGradient1004"
       xlink:href="#linearGradient4632-0-6-4-4-4" />
    <linearGradient
       gradientTransform="matrix(2.1416719,0,0,2.3363696,17.203965,10.771116)"
       gradientUnits="userSpaceOnUse"
       xlink:href="#linearGradient4235"
       id="linearGradient7191"
       y2="40.958347"
       x2="23.99999"
       y1="7.0416851"
       x1="23.99999" />
    <linearGradient
       gradientTransform="matrix(4.9872499,0,0,5.0426637,8.7570274,-31.487762)"
       xlink:href="#linearGradient895"
       id="linearGradient889-7"
       x1="12"
       y1="5.369091"
       x2="12"
       y2="40.668579"
       gradientUnits="userSpaceOnUse" />
    <linearGradient
       inkscape:collect="always"
       xlink:href="#linearGradient895"
       id="linearGradient1143"
       x1="69.837196"
       y1="8.1723585"
       x2="68.375511"
       y2="74.278969"
       gradientUnits="userSpaceOnUse" />
    <clipPath
       clipPathUnits="userSpaceOnUse"
       id="clipPath1163">
      <path
         sodipodi:nodetypes="sssssssss"
         inkscape:connector-curvature="0"
         style="color:#000000;display:inline;overflow:visible;visibility:visible;opacity:1;vector-effect:none;fill:none;fill-opacity:0.972549;fill-rule:nonzero;stroke:#000000;stroke-width:2.205;stroke-linecap:butt;stroke-linejoin:miter;stroke-miterlimit:4;stroke-dasharray:none;stroke-dashoffset:0;stroke-opacity:1;marker:none;enable-background:accumulate"
         id="path1165"
         d="m 26.567338,16.523488 c -2.74876,0 -4.96166,2.212901 -4.96166,4.961661 v 89.309881 c 0,2.74876 2.2129,4.96166 4.96166,4.96166 h 82.694352 c 2.74876,0 4.96166,-2.2129 4.96166,-4.96166 V 21.485149 c 0,-2.74876 -2.2129,-4.961661 -4.96166,-4.961661 z" />
    </clipPath>
    <linearGradient
       inkscape:collect="always"
       xlink:href="#linearGradient1173"
       id="linearGradient1175"
       x1="74.502586"
       y1="121.77978"
       x2="73.328941"
       y2="-6.3525696"
       gradientUnits="userSpaceOnUse"
       gradientTransform="matrix(0.5725272,0,0,0.5725272,-7.067502,-4.9433164)" />
    <clipPath
       clipPathUnits="userSpaceOnUse"
       id="clipPath1183">
      <path
         id="path1185"
         d="m 44.760097,23.139031 c -1.83251,0 -3.30664,1.476087 -3.30664,3.308594 V 59.52575 c 0,1.832506 1.47413,3.306641 3.30664,3.306641 h 46.30859 c 1.83251,0 3.3086,-1.474135 3.3086,-3.306641 V 26.447625 c 0,-1.832507 -1.47609,-3.308594 -3.3086,-3.308594 z"
         style="fill:url(#linearGradient1187);fill-opacity:1;stroke:none;stroke-opacity:0.013009"
         inkscape:connector-curvature="0" />
    </clipPath>
    <linearGradient
       inkscape:collect="always"
       xlink:href="#linearGradient895"
       id="linearGradient1187"
       gradientUnits="userSpaceOnUse"
       x1="69.837196"
       y1="8.1723585"
       x2="68.375511"
       y2="74.278969" />
    <linearGradient
       inkscape:collect="always"
       xlink:href="#linearGradient895"
       id="linearGradient1214"
       gradientUnits="userSpaceOnUse"
       x1="69.837196"
       y1="8.1723585"
       x2="68.375511"
       y2="74.278969" />
  </defs>
  <g
     inkscape:groupmode="layer"
     id="layer1"
     inkscape:label="Layer 1"
     style="display:none">
    <rect
       style="opacity:0.343081;fill:#ffffff;fill-opacity:1;stroke:none;stroke-width:2.18126;stroke-miterlimit:4;stroke-dasharray:none;stroke-opacity:1"
       id="rect1263"
       width="64"
       height="64"
       x="0"
       y="1.3322676e-15" />
  </g>
  <g
     inkscape:groupmode="layer"
     id="layer2"
     inkscape:label="Layer 2">
    <path
       inkscape:connector-curvature="0"
       style="color:#000000;display:inline;overflow:visible;visibility:visible;opacity:1;vector-effect:none;fill:url(#linearGradient1175);fill-opacity:1;fill-rule:nonzero;stroke:none;stroke-width:2.52505;stroke-linecap:butt;stroke-linejoin:miter;stroke-miterlimit:4;stroke-dasharray:none;stroke-dashoffset:0;stroke-opacity:0.498039;marker:none;enable-background:accumulate"
       id="rect3032-7-5"
       d="m 8.143023,4.5168285 c -1.5737405,0 -2.840686,1.266946 -2.840686,2.840686 V 58.48987 c 0,1.57374 1.2669455,2.84069 2.840686,2.84069 h 47.344772 c 1.57374,0 2.84069,-1.26695 2.84069,-2.84069 V 7.3575145 c 0,-1.57374 -1.26695,-2.840686 -2.84069,-2.840686 z M 9.08992,8.30441 h 3.787577 v 3.787581 H 9.08992 Z m 9.468955,0 h 26.513069 c 1.049163,0 1.893796,0.8446305 1.893796,1.89379 v 18.937909 c 0,1.04916 -0.844633,1.893791 -1.893796,1.893791 H 18.558875 c -1.049163,0 -1.893789,-0.844631 -1.893789,-1.893791 V 10.1982 c 0,-1.0491595 0.844627,-1.89379 1.893789,-1.89379 z m 32.19444,0 H 54.5409 v 3.787581 H 50.753315 Z M 9.08992,15.879573 h 3.787577 v 3.787581 H 9.08992 Z m 41.663395,0 H 54.5409 v 3.787581 H 50.753315 Z M 9.08992,23.454737 h 3.787577 v 3.787582 H 9.08992 Z m 41.663395,0 H 54.5409 v 3.787582 H 50.753315 Z M 9.08992,31.0299 h 3.787577 v 3.787581 H 9.08992 Z m 41.663395,0 H 54.5409 v 3.787581 h -3.787585 z m -32.19444,3.787581 h 26.513069 c 1.049163,0 1.893796,0.844629 1.893796,1.89379 v 18.937904 c 0,1.04916 -0.844633,1.893805 -1.893796,1.893805 H 18.558875 c -1.049163,0 -1.893789,-0.844645 -1.893789,-1.893805 V 36.711271 c 0,-1.049161 0.844627,-1.893789 1.893789,-1.89379 z m -9.468955,3.78758 h 3.787578 v 3.787581 H 9.08992 Z m 41.663395,0 H 54.5409 v 3.787581 H 50.753315 Z M 9.08992,46.180225 h 3.787577 V 49.96781 H 9.08992 Z m 41.663395,0 H 54.5409 V 49.96781 H 50.753315 Z M 9.08992,53.755385 h 3.787577 V 57.54298 H 9.08992 Z m 41.663395,0 H 54.5409 v 3.787595 h -3.787585 z" />
    <path
       d="m 8.1430235,4.516831 c -1.5737405,0 -2.840686,1.2669465 -2.840686,2.8406865 V 58.489865 c 0,1.57374 1.2669455,2.84068 2.840686,2.84068 H 55.487795 c 1.57374,0 2.84069,-1.26694 2.84069,-2.84068 V 7.3575175 c 0,-1.57374 -1.26695,-2.8406865 -2.84069,-2.8406865 z"
       id="path1127"
       style="color:#000000;display:inline;overflow:visible;visibility:visible;opacity:1;vector-effect:none;fill:none;fill-opacity:0.972549;fill-rule:nonzero;stroke:#000000;stroke-width:2.52485;stroke-linecap:butt;stroke-linejoin:miter;stroke-miterlimit:4;stroke-dasharray:none;stroke-dashoffset:0;stroke-opacity:1;marker:none;enable-background:accumulate"
       inkscape:connector-curvature="0"
       sodipodi:nodetypes="sssssssss" />
    <rect
       style="opacity:0.211818;fill:#fafafa;fill-opacity:1;stroke:none;stroke-width:4.41;stroke-miterlimit:4;stroke-dasharray:none;stroke-opacity:1"
       id="rect1159"
       width="131.57393"
       height="6.2128806"
       x="4.3742285"
       y="14.717845"
       clip-path="url(#clipPath1163)"
       transform="matrix(0.57252725,0,0,0.57252725,-7.067503,-4.9433165)" />
    <rect
       clip-path="url(#clipPath1163)"
       y="7.2855654"
       x="2.8177772"
       height="14.048263"
       width="134.05054"
       id="rect1167"
       style="opacity:0.491375;fill:#242424;fill-opacity:1;stroke:none;stroke-width:4.41;stroke-miterlimit:4;stroke-dasharray:none;stroke-opacity:1"
       transform="matrix(0.57252725,0,0,-0.57252725,-7.067503,70.790705)" />
    <g
       id="g1202"
       transform="matrix(0.57252725,0,0,0.57252725,-7.067502,-4.9433165)"
       style="stroke-width:2">
      <g
         id="g1196"
         style="stroke-width:2">
        <path
           inkscape:connector-curvature="0"
           style="fill:url(#linearGradient1143);fill-opacity:1;stroke:none;stroke-width:2;stroke-opacity:0.013009"
           d="m 44.760097,23.139031 c -1.83251,0 -3.30664,1.476087 -3.30664,3.308594 V 59.52575 c 0,1.832506 1.47413,3.306641 3.30664,3.306641 h 46.30859 c 1.83251,0 3.3086,-1.474135 3.3086,-3.306641 V 26.447625 c 0,-1.832507 -1.47609,-3.308594 -3.3086,-3.308594 z"
           id="path1026" />
        <rect
           style="opacity:0.455236;fill:#fafafa;fill-opacity:1;stroke:none;stroke-width:4.41;stroke-miterlimit:4;stroke-dasharray:none;stroke-opacity:1"
           id="rect1179"
           width="69.071678"
           height="17.694448"
           x="32.388878"
           y="10.964989"
           clip-path="url(#clipPath1183)" />
        <rect
           clip-path="url(#clipPath1183)"
           y="10.964989"
           x="32.388878"
           height="17.694448"
           width="69.071678"
           id="rect1191"
           style="opacity:0.455236;fill:#5b5b5b;fill-opacity:1;stroke:none;stroke-width:4.41;stroke-miterlimit:4;stroke-dasharray:none;stroke-opacity:1"
           transform="matrix(1,0,0,-1,0,85.971422)" />
      </g>
    </g>
    <g
       id="g1212"
       transform="matrix(0.57252725,0,0,0.57252725,-7.067503,21.569754)"
       style="stroke-width:2">
      <g
         id="g1210"
         style="stroke-width:2">
        <path
           id="path1204"
           d="m 44.760097,23.139031 c -1.83251,0 -3.30664,1.476087 -3.30664,3.308594 V 59.52575 c 0,1.832506 1.47413,3.306641 3.30664,3.306641 h 46.30859 c 1.83251,0 3.3086,-1.474135 3.3086,-3.306641 V 26.447625 c 0,-1.832507 -1.47609,-3.308594 -3.3086,-3.308594 z"
           style="fill:url(#linearGradient1214);fill-opacity:1;stroke:none;stroke-width:2;stroke-opacity:0.013009"
           inkscape:connector-curvature="0" />
        <rect
           clip-path="url(#clipPath1183)"
           y="10.964989"
           x="32.388878"
           height="17.694448"
           width="69.071678"
           id="rect1206"
           style="opacity:0.455236;fill:#fafafa;fill-opacity:1;stroke:none;stroke-width:4.41;stroke-miterlimit:4;stroke-dasharray:none;stroke-opacity:1" />
        <rect
           transform="matrix(1,0,0,-1,0,85.971422)"
           style="opacity:0.455236;fill:#5b5b5b;fill-opacity:1;stroke:none;stroke-width:4.41;stroke-miterlimit:4;stroke-dasharray:none;stroke-opacity:1"
           id="rect1208"
           width="69.071678"
           height="17.694448"
           x="32.388878"
           y="10.964989"
           clip-path="url(#clipPath1183)" />
      </g>
    </g>
    <g
       id="g1240"
       transform="matrix(0.56599175,0,0,0.56599175,-74.797175,-1.327456)"
       style="stroke-width:2">
      <path
         style="display:inline;opacity:1;fill:url(#linearGradient28076);fill-opacity:1;stroke:none;stroke-width:1.47179"
         id="path7249-8-0-3-6-1-6-8"
         d="m 204.69118,4.62476 c -3.80581,-1.0197848 -3.97534,1.6485748 -4.66658,4.2283216 L 180.33355,82.155368 c 0,0 -1.93007,-0.713305 -3.39178,-1.104982 -10.91385,-3.653878 -25.20691,1.19395 -29.44703,12.580958 -3.79652,8.939376 3.91002,19.196446 12.99576,20.082386 11.27369,1.76493 22.40994,-7.17858 23.92527,-18.550047 5.21505,-19.339087 10.31242,-38.733695 15.60103,-58.038103 0.97779,-0.660805 2.01102,1.580865 2.77398,1.881699 7.40814,7.609724 12.88633,18.352996 10.5249,29.271206 -1.67779,8.57637 -6.41945,16.13756 -11.36257,23.180577 12.72398,-9.273378 20.4076,-25.716205 17.51417,-41.471771 -1.22116,-9.023015 -7.5404,-16.075143 -9.80573,-24.759068 -1.81474,-5.8838 -2.71644,-12.151008 -1.87686,-18.2982483 -0.2881,-1.4059933 -1.79791,-1.9723204 -3.00978,-2.2827694 z"
         inkscape:connector-curvature="0" />
      <path
         inkscape:connector-curvature="0"
         d="m 204.69118,4.62476 c -3.80581,-1.0197848 -3.97534,1.6485748 -4.66658,4.2283216 L 180.33355,82.155368 c 0,0 -1.93007,-0.713305 -3.39178,-1.104982 -10.91385,-3.653878 -25.20691,1.19395 -29.44703,12.580958 -3.79652,8.939376 3.91002,19.196446 12.99576,20.082386 11.27369,1.76493 22.40994,-7.17858 23.92527,-18.550047 5.21505,-19.339087 10.31242,-38.733695 15.60103,-58.038103 0.97779,-0.660805 2.01102,1.580865 2.77398,1.881699 7.40814,7.609724 12.88633,18.352996 10.5249,29.271206 -1.67779,8.57637 -6.41945,16.13756 -11.36257,23.180577 12.72398,-9.273378 20.4076,-25.716205 17.51417,-41.471771 -1.22116,-9.023015 -7.5404,-16.075143 -9.80573,-24.759068 -1.81474,-5.8838 -2.71644,-12.151008 -1.87686,-18.2982483 -0.2881,-1.4059933 -1.79791,-1.9723204 -3.00978,-2.2827694 z"
         id="path1223"
         style="display:inline;opacity:1;fill:none;fill-opacity:1;stroke:#d48e15;stroke-width:1.47179;stroke-opacity:1" />
      <path
         d="m 203.42578,4.4082031 c -2.59149,-0.1371654 -2.79555,2.1880341 -3.40039,4.4453125 L 180.33398,82.15625 c 0,0 -1.93086,-0.713792 -3.39257,-1.105469 -10.91385,-3.653878 -25.20715,1.19307 -29.44727,12.580078 -0.89903,2.116888 -1.1453,4.306956 -0.88867,6.429691 0.14001,-1.104525 0.42795,-2.208157 0.88867,-3.292972 4.24012,-11.387008 18.53342,-16.235909 29.44727,-12.582031 1.46171,0.391677 3.39257,1.105469 3.39257,1.105469 l 19.69141,-73.302735 c 0.69124,-2.5797463 0.86021,-5.2483002 4.66602,-4.2285154 l 0.084,0.023437 c 1.01403,0.2597668 2.22662,0.7059391 2.76758,1.6660157 0.0518,-0.8409756 0.12776,-1.6817381 0.24219,-2.5195313 -0.2881,-1.4059933 -1.7979,-1.9727541 -3.00977,-2.2832031 L 204.69141,4.625 c -0.47573,-0.1274731 -0.89542,-0.1972018 -1.26563,-0.2167969 z m 4.0918,8.9257809 c -0.20575,5.082694 0.65054,10.185448 2.14453,15.029297 2.26533,8.683925 8.58353,15.736751 9.80469,24.759766 0.31677,1.724897 0.49982,3.458391 0.57031,5.189453 0.1146,-2.76796 -0.062,-5.558031 -0.57031,-8.326172 -1.22116,-9.023015 -7.53936,-16.073887 -9.80469,-24.757812 -1.18666,-3.847428 -1.97026,-7.859967 -2.14453,-11.894532 z m 6.28906,51.310547 c -0.0768,1.206542 -0.22746,2.419815 -0.49023,3.634766 -1.67779,8.57637 -6.42017,16.13667 -11.36329,23.179687 1.63872,-1.194316 3.18876,-2.512365 4.64844,-3.927734 3.04228,-5.014812 5.58286,-10.330781 6.71485,-16.117188 0.49177,-2.273745 0.62508,-4.53768 0.49023,-6.769531 z"
         style="display:inline;opacity:0.452744;fill:#ffffff;fill-opacity:1;stroke:none;stroke-width:1.47179"
         id="path1218"
         inkscape:connector-curvature="0" />
      <path
         d="m 207.66602,6.5722656 c -0.14543,1.4384531 -0.20203,2.8806077 -0.17383,4.3222654 0.0281,-1.323702 0.11301,-2.6472076 0.29297,-3.9648435 -0.0264,-0.1286997 -0.0735,-0.2423454 -0.11914,-0.3574219 z m -7.28125,28.9062504 c -0.12332,0.0014 -0.24497,0.04045 -0.36719,0.123046 -5.28861,19.304408 -10.38651,38.698023 -15.60156,58.03711 -1.51533,11.371468 -12.6521,20.315708 -23.92579,18.550778 -7.20815,-0.70286 -13.54216,-7.30483 -13.95898,-14.466794 -0.47702,7.724394 6.24147,15.237714 13.95898,15.990234 11.27369,1.76493 22.41046,-7.17736 23.92579,-18.548828 5.21505,-19.339087 10.31295,-38.734654 15.60156,-58.039062 0.97779,-0.660805 2.01048,1.581979 2.77344,1.882812 5.99747,6.160677 10.72476,14.375848 11.05664,23.074219 0.20239,-9.258874 -4.70994,-18.080201 -11.05664,-24.599609 -0.66759,-0.26323 -1.54301,-2.013411 -2.40625,-2.003906 z m 19.68164,20.490234 c -0.24884,12.3297 -6.42148,24.318339 -15.87696,32.216797 -0.73613,1.102851 -1.48054,2.19659 -2.23633,3.273437 11.11828,-8.103118 18.38596,-21.680713 18.11329,-35.490234 z"
         style="display:inline;opacity:0.343081;fill:#5e5c64;fill-opacity:1;stroke:none;stroke-width:1.47179"
         id="path1227"
         inkscape:connector-curvature="0" />
    </g>
  </g>
</svg>
